<?xml version="1.0" standalone="no"?>
<!DOCTYPE svg PUBLIC "-//W3C//DTD SVG 20010904//EN"
 "http://www.w3.org/TR/2001/REC-SVG-20010904/DTD/svg10.dtd">
<svg version="1.0" xmlns="http://www.w3.org/2000/svg"
 width="90.000000pt" height="90.000000pt" viewBox="0 0 90.000000 90.000000"
 preserveAspectRatio="xMidYMid meet">

<g transform="translate(0.000000,90.000000) scale(0.100000,-0.100000)"
fill="#000000" stroke="none">
<path d="M360 854 c0 -45 24 -42 28 4 2 24 -1 32 -12 32 -12 0 -16 -10 -16
-36z"/>
<path d="M490 831 c-8 -4 -25 -13 -37 -19 -13 -7 -33 -12 -45 -12 -15 0 -19
-3 -11 -8 9 -5 2 -12 -20 -20 -47 -17 -77 -69 -88 -149 -18 -141 -5 -244 33
-264 10 -5 18 -15 18 -22 0 -7 9 -18 20 -25 28 -17 26 -9 -20 80 -40 77 -41
79 -30 137 6 32 8 65 4 74 -3 9 -1 32 6 51 15 48 62 76 126 75 59 -1 94 -21
94 -54 0 -13 5 -27 10 -30 17 -10 11 -25 -12 -35 -17 -6 -19 -9 -6 -9 26 -1
45 -38 59 -114 12 -62 11 -72 -6 -103 -12 -23 -25 -34 -40 -34 -14 0 -33 -14
-50 -36 -24 -31 -25 -34 -7 -25 30 16 42 14 42 -9 0 -13 9 -22 26 -26 31 -8
34 -5 73 71 21 39 29 50 25 30 -9 -39 -22 -64 -48 -95 -40 -45 -56 -106 -18
-68 9 9 12 9 12 0 0 -16 43 -15 85 2 32 14 35 13 36 -2 0 -11 3 -12 6 -4 2 6
9 10 14 6 5 -3 9 0 9 7 0 7 8 9 21 6 20 -5 20 -5 3 14 -9 10 -22 19 -28 19 -5
0 -24 14 -41 30 l-32 31 25 51 c21 45 24 60 18 118 -9 103 -35 240 -52 275
-30 63 -127 111 -174 86z m80 -109 c0 -3 -8 2 -18 11 -10 10 -24 17 -30 17
-14 0 -14 2 -6 25 5 13 11 9 30 -17 13 -17 24 -34 24 -36z"/>
<path d="M472 587 c-22 -27 -33 -71 -26 -114 5 -35 10 -43 23 -39 9 4 6 -2 -8
-14 -22 -19 -22 -20 -3 -20 11 0 22 -5 24 -12 3 -7 13 -5 31 7 30 19 34 33 12
41 -8 4 -12 10 -9 15 3 5 -10 16 -28 24 -18 8 -27 14 -19 15 8 0 12 3 8 6 -3
3 -1 19 5 35 9 26 11 28 30 15 22 -16 48 -11 48 8 0 12 -50 46 -68 46 -5 0
-14 -6 -20 -13z"/>
<path d="M358 583 c-9 -2 -19 -11 -22 -20 -4 -10 -2 -14 8 -10 7 3 18 1 24 -5
6 -6 18 -8 27 -5 13 6 13 10 3 27 -7 11 -15 19 -18 19 -3 -1 -12 -3 -22 -6z"/>
<path d="M371 451 c-8 -14 -5 -23 14 -41 14 -13 25 -18 25 -11 0 6 -7 14 -15
17 -10 4 -13 14 -9 30 7 29 -1 32 -15 5z"/>
<path d="M402 254 c-1 -6 -9 -53 -17 -105 -9 -52 -20 -104 -25 -116 -7 -17 -6
-23 4 -23 15 0 26 30 26 73 0 16 5 37 10 48 6 11 9 45 7 77 -2 31 -4 52 -5 46z"/>
<path d="M722 120 c0 -14 2 -19 5 -12 2 6 2 18 0 25 -3 6 -5 1 -5 -13z"/>
<path d="M282 110 c0 -14 2 -19 5 -12 2 6 2 18 0 25 -3 6 -5 1 -5 -13z"/>
</g>
</svg>
